<svg version="1.1" xmlns="http://www.w3.org/2000/svg" xmlns:xlink="http://www.w3.org/1999/xlink" x="0px" y="0px"
	 viewBox="0 0 180 14" style="enable-background:new 0 0 180 14;" xml:space="preserve">
<path class="st0" d="M9.8,5.2c0,0.7-0.2,0.9-0.8,0.9H4.3V1.9H9c0.6,0,0.8,0.3,0.8,0.9L9.8,5.2z M14.4,14c-0.6-0.6-0.8-1.1-1.1-1.8
	l-1.7-4.3C13,7.7,13.7,7,13.7,5.6v-3c0-1.5-0.9-2.6-2.7-2.6H0C0.1,0.6,0.3,1,0.3,1.9v10.3c0,0.9-0.1,1.3-0.3,1.8h4.6
	c-0.1-0.5-0.3-0.9-0.3-1.8V7.9h3L9.7,14H14.4z M16.5,14c0.1-0.5,0.3-0.9,0.3-1.8V1.9c0-0.9-0.1-1.3-0.3-1.8h4.6
	C21,0.6,20.9,1,20.9,1.9v10.3c0,0.9,0.1,1.3,0.3,1.8H16.5z M34.7,14h-8.1c-1.9,0-2.7-1-2.7-2.7V2.8c0-1.7,0.9-2.7,2.7-2.7h8.1
	l0.3,2.1c-0.5-0.2-1.1-0.3-2-0.3h-4.4c-0.5,0-0.7,0.2-0.7,0.7v8.9c0,0.6,0.3,0.7,0.7,0.7h4.4c0.9,0,1.4-0.1,2-0.3L34.7,14z M47.1,14
	c0.1-0.5,0.3-0.9,0.3-1.8V7.9h-5.5v4.3c0,0.9,0.1,1.3,0.3,1.8h-4.6c0.1-0.5,0.3-0.9,0.3-1.8V1.9c0-0.9-0.1-1.3-0.3-1.8h4.6
	C42,0.6,41.9,1,41.9,1.9v4.2h5.5V1.9c0-0.9-0.1-1.3-0.3-1.8h4.6c-0.1,0.5-0.3,0.9-0.3,1.8v10.3c0,0.9,0.1,1.3,0.3,1.8H47.1z
	 M63.1,8.3h-4.7L60.8,3L63.1,8.3z M70.3,14c-0.4-0.4-0.8-1.1-1.1-1.8L63.8,0.1h-4.5L59.8,1l-5,11.2c-0.2,0.5-0.7,1.2-1.1,1.8h2.7
	c0-0.7,0.2-1.4,0.3-1.8l0.9-2.2h6.3l1,2.2c0.2,0.5,0.4,1.1,0.4,1.4c0,0.1,0,0.2,0,0.4H70.3z M82.2,5.2c0,0.7-0.2,0.9-0.8,0.9h-4.7
	V1.9h4.7c0.6,0,0.8,0.3,0.8,0.9V5.2z M86.7,14c-0.6-0.6-0.8-1.1-1.1-1.8L84,7.9c1.5-0.2,2.1-0.9,2.1-2.3v-3c0-1.5-0.9-2.6-2.7-2.6
	h-11c0.1,0.5,0.3,0.9,0.3,1.8v10.3c0,0.9-0.1,1.3-0.3,1.8H77c-0.1-0.5-0.3-0.9-0.3-1.8V7.9h3l2.4,6.1H86.7z M98.8,11.5
	c0,0.6-0.3,0.7-0.7,0.7h-4.9V1.9l4.9,0c0.5,0,0.7,0.2,0.7,0.7V11.5z M102.9,11.3V2.8c0-1.7-0.9-2.7-2.7-2.7H88.9
	C89,0.6,89.1,1,89.1,1.9v10.4c0,0.9-0.1,1.3-0.3,1.8h11.3C102,14,102.9,13,102.9,11.3L102.9,11.3z M125.1,13.9
	c0.1-0.5,0.3-0.9,0.3-1.8V2h0l-4.8,11.9h-2.8L113.1,2h0v10.1c0,0.9,0.1,1.3,0.3,1.8h-2.4c0.1-0.5,0.3-0.9,0.3-1.8V1.8
	c0-0.9-0.1-1.3-0.3-1.8h5.5l4,10.1l4-10.1h5.2c-0.1,0.5-0.3,0.9-0.3,1.8v10.3c0,0.9,0.1,1.3,0.3,1.8H125.1z M132.9,13.9
	c0.1-0.5,0.3-0.9,0.3-1.8V1.8c0-0.9-0.1-1.3-0.3-1.8h4.6c-0.1,0.5-0.3,0.9-0.3,1.8v10.3c0,0.9,0.1,1.3,0.3,1.8H132.9z M152.1,13.9
	h-11.4c0.1-0.5,0.3-0.9,0.3-1.8V1.8c0-0.9-0.1-1.3-0.3-1.8h4.6c-0.1,0.5-0.3,0.9-0.3,1.8v10.3h5.4c0.9,0,1.5-0.1,2-0.3L152.1,13.9z
	 M165.9,13.9h-11.4c0.1-0.5,0.3-0.9,0.3-1.8V1.8c0-0.9-0.1-1.3-0.3-1.8h4.6c-0.1,0.5-0.3,0.9-0.3,1.8v10.3h5.4c0.9,0,1.5-0.1,2-0.3
	L165.9,13.9z M179.6,13.9h-11.4c0.1-0.5,0.3-0.9,0.3-1.8V1.8c0-0.9-0.1-1.3-0.3-1.8h11.4l0.3,2.1c-0.5-0.2-1.1-0.3-2-0.3h-5.4V6h4.8
	c0.8,0,1.5-0.1,1.9-0.3v2.4c-0.5-0.2-1.2-0.3-1.9-0.3h-4.8v4.4h5.4c0.9,0,1.5-0.1,2-0.3L179.6,13.9z"/>
</svg>
